<svg id="Layer_1" data-name="Layer 1" xmlns="http://www.w3.org/2000/svg" viewBox="0 0 361.34 361.34"><defs><style>.cls-1{fill:#fff;}</style></defs><path class="cls-1" d="M238.8,82.63c1.15.11,1.5-.84,1.5-10.7S240,61,238.8,60.83s-1.49.81-1.49,10.74S237.66,82.53,238.8,82.63Z"/><path class="cls-1" d="M177.22,92c-.88.35-1.49,1.57-1.49,5,0,3.6.61,4.39,1.49,4,1.06-.44,1.41-1.64,1.41-5.48C178.63,93.76,178.45,91.47,177.22,92Z"/><path class="cls-1" d="M113.88,85.37c2,.21,3.52-1.89,3.52-6.89,0-5.19-1.58-7.48-3-7.66-.88-.11-1.41.6-1.41,2.28V84.28C113,85.07,113.35,85.31,113.88,85.37Z"/><path class="cls-1" d="M222.69,142.51a1.81,1.81,0,0,0-1.13,1.94c0,1.39.79,5.56,3.85,15,4.31,12.73,5.44,14.9,6.91,14.48a1.7,1.7,0,0,0,1.13-1.8c0-1.58-.79-5.56-3.85-15C225.3,144.34,224.17,142.07,222.69,142.51Z"/><path class="cls-1" d="M258.88,264.82c-3.9-11.88-4.76-14.3-5.48-14-.32.1-.48.67-.34,1.66.18,1.27,1.11,5.33,3.93,14.15,3.9,11.84,4.78,13.58,5.49,13.28.38-.2.46-.84.35-1.58C262.63,276.89,261.69,273.47,258.88,264.82Z"/><path class="cls-1" d="M121.54,301c-.56-.06-.92,1.15-.81,5.65.13,4.73.55,6.19,1.12,6.27s.86-1.27.73-6.38C122.52,304.2,122.33,301.07,121.54,301Z"/><path class="cls-1" d="M180.67,0A180.67,180.67,0,1,0,361.34,180.67,180.67,180.67,0,0,0,180.67,0Zm50.92,52A18.91,18.91,0,0,1,240,54.36V53.6a8.89,8.89,0,0,0-1.32-4.75c-.8-1.44-1.67-2.81-1.67-4.2,0-1.68.7-2.84,2.72-3.73,5-2.23,13.55-1,20.59,3.43,7.56,4.83,7.48,8.93,7.48,16V90a12,12,0,0,0,1,4A14.81,14.81,0,0,1,270,98.4c0,1.58-.71,2.38-3.08,2.11-3.78-.62-12.58-3-19.36-4.17-5.45-1.08-6.95-3-7.3-7.06-3.34,3.15-8.62,5.4-14.07,6.08-10.3,1.34-17.33-3-17.33-17.6C208.81,62.35,216.72,51.45,231.59,52Zm-7,136.88c-23.56,8.81-35.45,3.83-35.45-15.58,0-19.82,14.61-38.72,41.23-45.38,23.56-5.3,35.45,7,35.45,23.66C265.85,169.67,251.24,179.36,224.62,188.88ZM222.29,247c-4.13,1.06-6.82-1.23-7.47-8.46-.91-10.19,5.89-15.2,11.37-16.15,4-.72,6.67,1.77,7.48,8.89C234.73,240.45,227.93,245.57,222.29,247ZM177,73.67c-1,.36-1,1.67-1.41,3.94-.88,5.14-4.84,8.85-12.23,11.63-6.33,2.35-9.59.9-9.59-3.5,0-8,10.74-17.94,28.15-24,23.85-7.79,23.85,4.52,23.85,9.52v9.25c0,2.31.61,3.37,2.19,3.91,1,.31,1.15.43,1.15,1.74,0,6.82-5.19,13.77-16.1,18.19-5.72,2.32-9.77,2.49-12.4,1.09a41.72,41.72,0,0,1-15.22,11.31c-8.45,3.72-15.31,1.52-15.31-7.87C150,98,157.6,92.2,168,88.19c4.83-1.85,7.74-2.56,8.88-2.92s1.06-.76,1.06-1.63v-8.4C177.93,74.36,178,73.28,177,73.67ZM188,172.21c0,19.67-14.61,39.34-41.23,50.58-23.56,9.49-35.45-2-35.45-23,0-22.43,14.61-36,41.23-45C176.14,146.73,188,153.09,188,172.21ZM81.51,58.46a26.67,26.67,0,0,1-1.24-7.23C80.27,44,84.94,45,90,48a70,70,0,0,0,12.41,6.24c5.1,2,14.16,3,18.38,3,10.73.94,25.16,1.51,25.16,15.79,0,5.75-2.29,11.23-6.77,14.55-.53.39-.79.54-.79.82s.08.27.61.35c4.58.89,10.21,4.32,10.21,14.09,0,15.11-13.73,25.33-28.77,26.42-5.28.41-12.32-.49-18.47-2a57.23,57.23,0,0,1-12.06-3.77A17.58,17.58,0,0,1,80.27,108a11.89,11.89,0,0,1,1.24-5.42,10.17,10.17,0,0,0,1.14-5.07V65.16A23.53,23.53,0,0,0,81.51,58.46ZM37.83,201a13.73,13.73,0,0,1,1.59-6.46,12.36,12.36,0,0,0,1.47-6.42V146.49a30.88,30.88,0,0,0-1.47-8.72,35.83,35.83,0,0,1-1.59-9.41c0-9.32,6-7.62,12.46-3.34,5.55,3.64,9.74,6.57,16.54,9.53a91.75,91.75,0,0,0,29.22,7.07,11,11,0,0,1,7.25-2.71c9.18.06,14.61,8.13,14.61,25.09,0,13.58-3.28,19.54-9.51,20.16-6.8.57-8.38-7.08-10.53-12.62-3.4-8.88-6.57-9.31-10-9.76-5.33-.76-8.16,0-8.16,8.51V175c0,1.29.34,1.62.91,1.74,1,.2,1.13-3.12,2-6,.68-2.07,2.38-5.14,6.34-4.64,6,.72,9.74,8.32,9.63,22.77S94.92,211.32,89.37,211c-4.19-.28-6.12-3.93-6.91-7.75-.68-3.31-.91-5.27-1.93-5.45-.56-.1-.79.37-.79,1.53v6c0,2.45,1.25,4.08,2.61,6.07,1.47,2.27,3.51,4.77,3.51,9.48,0,10.68-9.52,13.45-25.15,7.44C45.76,222.18,37.83,212.1,37.83,201ZM103,279c-3.2-.62-4.13-7.06-5.3-11.71-1.85-7.4-3.35-7.62-4.93-7.88-2.48-.36-3.72.53-3.44,6.92.06,1.2.11,2.4.16,3.61,0,1,.21,1.21.46,1.28.47.12.41-2.42.73-4.68.24-1.59.91-4.08,2.75-3.77,2.8.44,4.79,6.85,5.11,18.85s-1.17,18.06-3.68,17c-1.89-.75-2.83-3.79-3.3-6.85-.39-2.64-.55-4.18-1-4.35-.25-.1-.34.26-.3,1.16l.18,4.7a14.28,14.28,0,0,0,1.31,5,21.85,21.85,0,0,1,1.81,8c.31,8.92-4,8.8-10.41,4.05-6.12-4.61-9.09-9.73-9.62-17a17.85,17.85,0,0,1,.27-4.52,15.86,15.86,0,0,0,.24-4.48q-.93-13.59-2-26.47a20.16,20.16,0,0,0-1-4.84,24.07,24.07,0,0,1-1.15-5.07c-.57-5.46,1.87-7,4.81-6.67,2.52.36,4.46.95,7.61,1.28q6.77.66,13.75.8c.92-1.47,2.08-2.37,3.39-2.39,4.42-.1,7.31,7.38,7.73,22.22C107.4,275,105.94,279.52,103,279Zm29.45,48.7c-3.77-.35-6.45-3-8.24-6.64-2.17,3.3-5.39,5.27-9.53,4.2-5.31-1.39-9.58-8.66-9.87-19.62-.34-12.68,4.13-15.66,10.65-14.9a32.2,32.2,0,0,1,5.64,1.28c.67.18.66-.4.63-1.55q-.15-5.51-.28-11c0-1.14,0-2.51-.68-2.53s-.57,1.68-.78,4.39c-.4,6.23-2.86,8.79-7.47,8.12-4-.6-6-4-6.16-9.14-.26-9.31,6.1-16.36,17.2-16.68,15.21-.59,15.8,15.39,16,23.17l.42,13.42c.11,3.37.57,5.17,1.67,6.6.66.84.79,1.08.85,3C142.86,319.79,139.64,328.3,132.44,327.66Zm31.76.23a13.89,13.89,0,0,1-8.71-1.83c-.88,2-2.26,3.35-4.11,3.44-4.72.2-8.16-7.16-8.46-16.09-.19-5.56,1.38-9,3.49-9.07s3.67,2.86,6.13,5.13,5.2,3.86,6.63,3.7c.83-.09,1.16-.74,1.12-1.6-.08-2-1.34-1.8-5.15-3.66-3.59-1.71-11.76-5.78-12.28-22.38-.42-13.55,4.57-23.88,13.36-25.16a11.12,11.12,0,0,1,7.09,1.51c.84-1.86,2-3.28,3.64-3.56,3.94-.68,7.5,4.59,8,13.41.31,5.76-1.32,9.29-3.19,9.62-1.63.28-3.33-1.9-5.59-4-1.72-1.58-4.66-3.73-6.11-3.53-.69.1-1.07.77-1,1.74.09,2.2,1.6,2,5.06,3.59s12.47,4.71,13.54,22.28C178.46,315.18,173.88,326.61,164.2,327.89Zm46.85-12.39c-5.72,2.11-10.52,1.66-11.17-6.45a45,45,0,0,1,0-5.12,37.41,37.41,0,0,0-.16-4.95q-.72-9.19-1.44-18.42c-.19-2.52-.39-4.3-1.2-4.09s-.73,2-.54,4.55l0,.36q.69,9.06,1.39,18.1a34.12,34.12,0,0,0,.63,4.84,42.72,42.72,0,0,1,.75,4.9c.66,8.09-3.81,11.49-9.61,13-6.29,1.66-10.79.32-11.32-8.48a20.78,20.78,0,0,1,.39-5.65,18,18,0,0,0,.35-5.14q-1.36-22.74-2.6-45.53a27,27,0,0,0-1-5.63,28.18,28.18,0,0,1-1.11-5.85,13,13,0,0,1,1.4-7.08c3-5.9,7.77-10.06,12.15-10.93,4.77-1,5.12,5.25,6,17.48q.61,8.84,1.25,17.64c1.73-5.94,4.84-10.68,10-11.91,6.3-1.5,9.49,5.34,10.64,17.33q1.13,11.79,2.28,23.47a13.36,13.36,0,0,0,1.1,4.45,15.28,15.28,0,0,1,1.23,4.85C221.27,309.4,217.25,313.22,211.05,315.5Zm21.48-8.85c-6.56,3-10.81,2.61-11.64-5.56a18.71,18.71,0,0,1,.18-5.36,16.37,16.37,0,0,0,.16-4.88q-.9-8.73-1.77-17.54a23.8,23.8,0,0,0-1.16-5.19,27.66,27.66,0,0,1-1.3-5.65,11.83,11.83,0,0,1,1.08-6.81c2.69-5.69,7.57-9.36,11.83-10.45,4.65-1.18,5.31,4.16,6.53,14.52q1.42,12.13,2.89,24.06a11.21,11.21,0,0,0,1.16,4.07,13,13,0,0,1,1.27,4.42C242.71,299.76,239.09,303.62,232.53,306.65ZM260.38,293c-11.51,6.74-19-.93-21.15-19.14-2.29-19.22,3.53-32.83,16.28-35.7,11.3-2.51,18.34,5.36,20.64,19.39C278.52,272.13,273.3,285.12,260.38,293Zm46.45-30.88c-4.67,3.43-8.71,5.16-9.5.65a16.81,16.81,0,0,1-.18-3,13.27,13.27,0,0,0-.27-2.82q-.9-5.12-1.82-10.41c-.25-1.44-.48-2.47-1.22-2.21s-.61,1.33-.35,2.81l0,.21q.92,5.29,1.81,10.41a11.24,11.24,0,0,0,.69,2.65,13.11,13.11,0,0,1,.79,2.62c.78,4.41-2.88,8.16-7.81,11.51-5.33,3.61-9.38,4.63-10.35-1.28a11.73,11.73,0,0,1,0-4,10.12,10.12,0,0,0,0-3.65q-1-6.29-2.08-12.75a13.92,13.92,0,0,0-1.22-3.74A16.41,16.41,0,0,1,274,245a7.26,7.26,0,0,1,.87-5.18,16.72,16.72,0,0,1,11.24-7.94c3.33-.63,4.58,1.15,5.45,4.92a11,11,0,0,1,9.25-7.64c6.05-.81,9.14,2.62,10.09,8.17.63,3.68,1.25,7.25,1.83,10.7a2.69,2.69,0,0,0,.89,1.75,2.89,2.89,0,0,1,1,1.84C315.15,254.94,311.89,258.33,306.83,262.07Zm-13.68-78.64c-14.61-4.08-23.45-8.89-23.34-19.93V145.62a9,9,0,0,1-5.32-8c0-6,6.12-10.42,13.37-13.57s13.25-4.55,18.8-2.11c5,2.2,8.95,6.63,8.95,11v5.1c0,.47.34.85,1,1.23a108.24,108.24,0,0,1,9.17,5.87c4.08,2.94,6,7.18,6,12.4,0,5.43-2.27,6.06-6,3.49a102.08,102.08,0,0,0-9.17-5.63c-.68-.37-1-.36-1,.11v10.77a3.69,3.69,0,0,0,2.15,3.39c2.26,1.25,4.3-1.43,9.06,1.81,4.3,3,6.68,7.47,6.68,10.84C323.5,190,314.9,190.41,293.15,183.43Z"/><path class="cls-1" d="M144.87,171.33c-.67.22-1.13,1-1.13,2.15,0,1.53.8,6.2,3.85,16.59,4.31,14,5.44,16.28,6.91,15.7a2.09,2.09,0,0,0,1.14-2.1c0-1.77-.8-6.08-3.86-16.32C147.48,173.4,146.35,170.83,144.87,171.33Z"/><path class="cls-1" d="M114.58,113.85c1.68.07,3.43-2.39,3.43-8.27,0-5.68-2.11-8.38-4-8.55-.62,0-1,.11-1,.9v13.16C113,113,113.62,113.8,114.58,113.85Z"/></svg>