<svg xmlns="http://www.w3.org/2000/svg" viewBox="0 0 200 200"><defs><style>.cls-1{fill:#faedb5;}</style></defs><g id="icons"><g id="def-2" data-name="def"><path class="cls-1" d="M100,0A100,100,0,1,0,200,100,100,100,0,0,0,100,0Zm20.45,48.46c3.07-1.22,5.51.49,5.5,4.33a10.17,10.17,0,0,1-5.81,8.42c-3,1.47-5.55-.13-5.71-3.5C114.27,54.19,117.14,49.78,120.45,48.46ZM109,38.82c3.55-2.32,6.91-.68,7.39,3.51a12.25,12.25,0,0,1-3.55,10.24c-1.68,1.76-3.7,3.14-6.27,2.08s-2.88-3.49-3-6.23C104,44.66,105.41,41.12,109,38.82ZM93.07,33c1.59-2.11,3.68-3.62,6.48-2.84s3.44,3.19,3.92,5.65a15.68,15.68,0,0,1,.13,2,14.42,14.42,0,0,1-4.1,9.81c-3.55,3.44-7.81,2.32-9.07-2.46A13.64,13.64,0,0,1,93.07,33ZM71.53,28.94c3.24-4.9,8.41-4.88,11.62,0a16.22,16.22,0,0,1,2.45,9.27,15.8,15.8,0,0,1-2.51,9.25c-3.2,4.81-8.27,4.82-11.46.05A17.61,17.61,0,0,1,71.53,28.94Zm50.56,64.72c-5.83,13.58-7.71,28.14-10.69,42.44-1.43,6.84-1.17,13.92-2.89,20.73a38.59,38.59,0,0,1-4,10.42,15.25,15.25,0,0,1-21.23,5.12c-8.95-5.69-12.11-15.87-8.32-27.05,1.84-5.41,4.66-10.36,7.36-15.36a56.43,56.43,0,0,0,3.24-7.34,19.49,19.49,0,0,0-3-19.76c-2.53-3.28-5.11-6.54-7.93-9.56a21.43,21.43,0,0,1-5.94-15c0-5.12.27-10.25,2.73-14.94C76.08,54.49,85,50,94.7,52.3a45.3,45.3,0,0,1,24.14,14.31c4.18,4.79,4.85,10.63,5.26,15.88A28.62,28.62,0,0,1,122.09,93.66ZM131.25,63a7.89,7.89,0,0,1-4,6.09c-2.59,1.49-4.76.15-4.71-3.27a7.75,7.75,0,0,1,3.84-5.94A3,3,0,0,1,131.25,63Z"/></g></g></svg>