<svg xmlns="http://www.w3.org/2000/svg" viewBox="0 0 200 200"><defs><style>.cls-1{fill:#faedb5;}.cls-2{fill:#f28142;}</style></defs><g id="icons"><g id="def-2" data-name="def"><circle class="cls-1" cx="100" cy="100" r="100"/><path class="cls-2" d="M124.1,82.49a28.43,28.43,0,0,1-2,11.17c-5.82,13.58-7.7,28.14-10.68,42.44-1.43,6.84-1.17,13.92-2.89,20.73a38.59,38.59,0,0,1-4,10.42,15.25,15.25,0,0,1-21.23,5.12c-8.95-5.69-12.11-15.87-8.32-27.05,1.84-5.41,4.66-10.36,7.36-15.36a56.43,56.43,0,0,0,3.24-7.34,19.49,19.49,0,0,0-3-19.76c-2.53-3.28-5.11-6.54-7.93-9.56a21.43,21.43,0,0,1-5.94-15c0-5.12.27-10.25,2.73-14.94C76.07,54.49,85,50,94.7,52.3a45.3,45.3,0,0,1,24.14,14.31C123,71.4,123.69,77.24,124.1,82.49Z"/><path class="cls-2" d="M85.6,38.26a15.8,15.8,0,0,1-2.51,9.25c-3.2,4.81-8.27,4.82-11.46.05a17.61,17.61,0,0,1-.1-18.62c3.24-4.9,8.41-4.88,11.62,0A16.22,16.22,0,0,1,85.6,38.26Z"/><path class="cls-2" d="M103.6,37.81a14.42,14.42,0,0,1-4.1,9.81c-3.55,3.44-7.81,2.32-9.07-2.46A13.64,13.64,0,0,1,93.07,33c1.59-2.11,3.68-3.62,6.48-2.84s3.44,3.19,3.92,5.65A15.68,15.68,0,0,1,103.6,37.81Z"/><path class="cls-2" d="M103.57,48.42c.4-3.76,1.84-7.3,5.38-9.6s6.91-.68,7.39,3.51a12.25,12.25,0,0,1-3.55,10.24c-1.68,1.76-3.7,3.14-6.27,2.08S103.64,51.16,103.57,48.42Z"/><path class="cls-2" d="M126,52.79a10.17,10.17,0,0,1-5.81,8.42c-3,1.47-5.55-.13-5.71-3.5-.16-3.52,2.71-7.93,6-9.25C123.52,47.24,126,49,126,52.79Z"/><path class="cls-2" d="M122.57,65.83a7.75,7.75,0,0,1,3.84-5.94A3,3,0,0,1,131.25,63a7.89,7.89,0,0,1-4,6.09C124.69,70.59,122.52,69.25,122.57,65.83Z"/></g></g></svg>