<svg xmlns="http://www.w3.org/2000/svg" xmlns:xlink="http://www.w3.org/1999/xlink" viewBox="0 0 1920 1080"><defs><style>.cls-1{fill:none;}.cls-2{clip-path:url(#clip-path);}.cls-3{fill:#d9bad5;}.cls-4{fill:#f28142;}.cls-5{fill:#f5a041;}.cls-6{fill:#faedb5;}.cls-7{fill:#bbbf99;}</style><clipPath id="clip-path"><rect class="cls-1" x="1" width="1919" height="1080"/></clipPath></defs><g id="Layer_1" data-name="Layer 1"><image width="280" height="392" transform="translate(0.9 1079.99) rotate(-90) scale(3.5)" xlink:href="../../inspo/8c80872a6272e67cf7036579bd403187.jpeg"/></g><g id="computer"><g class="cls-2"><rect class="cls-3" x="1" width="1919" height="1080"/><path class="cls-4" d="M0,189.87s59.13,34.72,164.27,145.75c45.12,47.65,102.74,81.91,166.39,97.86,71.52,17.92,167.09,19,280.84-34,0,0,159.36-79.7,12.45-282a497.15,497.15,0,0,1-32.91-52c-18-32.62-41-78.34-38.54-95l-575-14Z"/><path class="cls-5" d="M521.85,325c51.47-24.66,76-84.77,55.16-137.89-10.34-26.33-30.4-53.88-67.54-76.69a221.27,221.27,0,0,1-47.54-38.78C439,46.62,410.68,8.17,406-33.07L-22.5-43.5-10.18,84.27c33.25,9.16,129.55,44.36,235.6,163.52,40.93,46,95.15,78.49,155.38,91.29C423.84,348.22,473.39,348.25,521.85,325Z"/><path class="cls-6" d="M76-94S153-9.29,179.59,90.47c9.89,37.08,30.42,70.62,60.09,94.95,29,23.75,70.13,42.35,125.12,33.81,18.08-2.81,34.83-11.64,46.67-25.59C430.75,170.94,440.75,131.88,357,85c0,0-199.21-106.92-106.6-198Z"/><path class="cls-6" d="M645-17s94.69,123.1,106.63,202.32a132.3,132.3,0,0,0,16.17,47c11.7,20.07,29.05,39.85,47.53,26.27a30.89,30.89,0,0,0,11.49-17.52c2.8-11.27,5.12-33.63-1.11-74.49a385.54,385.54,0,0,1-4.59-60.6c.35-57.6,11.41-151.64,78.88-162Z"/><path class="cls-5" d="M677-70s64.91,113.82,76.51,172.08A41.94,41.94,0,0,0,769.2,127.5c8.61,6.49,19.12,8.71,25.42-10.38a60.94,60.94,0,0,0,2.7-24.59C794,55.86,784.32-88.52,834-113Z"/><path class="cls-7" d="M988.72-43.5s-63.81,78.59-84,156.51c-16,61.53,23.8,123.9,86.22,136,51.36,9.93,137,15.41,254.81-14.16,6-1.5,11.89-3.2,17.77-5C1306,216.58,1544.92,149.26,1962,161V-56Z"/><path class="cls-5" d="M1042.49-56S909.85,53.31,951.92,132.16c0,0,91.07,196.12,419.58,11.48C1371.5,143.64,1736-54,1975,21l26-64.5L1612-81Z"/><path class="cls-6" d="M1056-21s-46,101.84-1.44,140.79c.79.69,1.57,1.37,2.32,2.1,5.9,5.74,40.83,36.74,86.36,12.85a77.38,77.38,0,0,0,26.93-23.8C1193.62,78,1272.84-24.36,1350-21Z"/><path class="cls-6" d="M1380.23-21.08S1277,25,1273,93c0,0-7.58,39.31,24.21,39.16,0,0,1.5,3.65,32.93-10a437.74,437.74,0,0,0,140.58-97.28c23.7-24.53,53.5-49.1,75.54-46Z"/><path class="cls-3" d="M1421.74-43.5S1365,3.37,1352.06,38.05A17.56,17.56,0,0,0,1366,61.56c6.87,1,15.77.67,26.32-3.25a68.37,68.37,0,0,0,37.1-33.8l33.87-68Z"/><path class="cls-7" d="M-22.5,847.42S14.36,857,97.9,693.61a526.39,526.39,0,0,0,30.6-73.89c13.58-40.87,67.59-128.08,280.59-113.88,10.25.68,20.46,1.81,30.65,3.08C458.15,511.23,533.25,510,716,391c0,0,194-115.3,244,165.85,0,0,29,139.46-67,278.43-43,62.21-64.3,137.08-58,212.45a416.27,416.27,0,0,0,9,58.27H-36.75Z"/><path class="cls-6" d="M-8,938s126.52-55.77,189-213.64a360.33,360.33,0,0,0,17.8-61c6.46-31.85,36.5-111.46,174.86-93.18a288.92,288.92,0,0,1,30.69,5.91C429.86,582.32,518.72,596,609,515c0,0,150.36-142,263.68,0,0,0,98.71,123-4.52,241.08-3.68,4.22-7.58,8.26-11.56,12.21C839,785.76,732.67,903.37,809,1125l-825-19Z"/><path class="cls-5" d="M0,1034.21s279.79,75,250.4-239.63C250.4,794.58,221,630,376,683c0,0,138,42.45,269-65.77,0,0,92-109.23,158-45.23,0,0,59,78.81,0,133.91,0,0-159,102.39-158,179.24,0,0-15.58,171.85,52.21,220.85H.9Z"/><path class="cls-6" d="M314.19,1080s48.54-48.71,42.58-201.47c-.25-6.65-.83-13.29-1.52-19.91-1.36-13.06,1.44-50.69,79.21-49.46,57,.89,111.28-24.09,147-68.51l1.72-2.16a21.87,21.87,0,0,1,3.13-3.25c8.28-7,43-34.41,62.73-21.59a20.76,20.76,0,0,1,9.15,17.78c-.31,20.47-6.87,87.39-73.69,163.71,0,0-78.32,96.85-9.88,184.86L567,1096H314.19Z"/><path class="cls-3" d="M424.79,1080s-57.57-132.31-10.18-164.65c0,0,45.39-24.34,61.39,7.66,0,0,24.25,39.52,5.05,96.32a115.75,115.75,0,0,0-6.34,38.66c.23,15.3,2.57,32.74,11.45,38Z"/><path class="cls-4" d="M878.34,1096s-33.17-98.68,66.77-246.09C968,816.19,984.85,778.71,993.79,739c9.83-43.68,13.38-99.06-6-156.37-1.82-5.41-4-10.71-6.23-15.93-17.28-39.48-116-284.43,93.12-290.58,1.91-.06,3.82-.15,5.72-.31,19.68-1.59,155.53-8,300,99.62,31.52,23.48,68.1,39.42,107,45.31,38.18,5.78,83.29,3.93,119.56-22.7,0,0,97-69,141-71,0,0,131-13.13,172,103.43L2024,696l-62,417.45Z"/><path class="cls-6" d="M1472.33,234.21s-91.84-16.1-109.08,28.85c0,0-28.8,86.12,117,104.53,0,0,70.77,15.41,143.77-46.59,0,0,1.09-.74,3.14-2.05a241,241,0,0,1,280.11,14.95L1962,377.6l-13.85-177.07s-71-16.27-156.2-16.21c-54.42,0-108.19,11.15-158.69,31.44C1605.14,227.05,1554.19,239.62,1472.33,234.21Z"/><path class="cls-5" d="M901.19,1080s-16.29-69.86,75.21-174.83c28.79-33,49.89-72.11,60.69-114.57a321.74,321.74,0,0,0,8.7-105.93,239.81,239.81,0,0,0-25.53-88.85C992.18,540.48,940,413.93,1009,346.16c.77-.76,1.54-1.53,2.28-2.31,7.57-8,66.86-64.74,206.32-34.33,58.19,12.69,111.37,42.74,150.83,87.35A251.57,251.57,0,0,1,1413,467.52c12.44,30.16,32.94,56.45,59.75,75C1515,571.88,1581,588.47,1665,515.74a308.09,308.09,0,0,0,26-25.54c19-20.87,91.72-87.39,195.07-18.2l64,68,34,264-47.17,276L1244,1134Z"/><path class="cls-3" d="M1044.38,1080s6.62-39,94.62-131c0,0,40.09-41.21,27.92-155-6.27-58.61-26.17-114.87-57-165.1-25.23-41.11-56.05-107.57-44.59-174,4.67-27.05,21-50.84,45-64.07,31.63-17.39,83.52-27.12,149.1,28.15,0,0,23.19,12,73,100.57a460.22,460.22,0,0,1,22,44.28c15,35,72.14,131.6,231.34,76.23a188.39,188.39,0,0,0,24.4-10.5c25.39-13.05,81.93-45.65,120.77-94.48,16.19-20.36,38-35.73,63-42.94,30.85-8.9,67.23-5.88,81.77,47.7a134.07,134.07,0,0,1-1.47,74.24c-13.32,43.64-36.83,139.38-14.78,214.85,0,0,55.17,227,35.85,284.5L1044.38,1134Z"/><path class="cls-6" d="M1153.81,1096s164.79-134.78,58.49-340.39c0,0-69.71-153-2.79-202.81a59.81,59.81,0,0,1,58.74-6.94c22.6,9.49,51.94,33.94,64.42,96.56,13.87,69.59,75,120.18,145.9,118.6,35.69-.8,74.89-12.82,113.43-46.12a107.24,107.24,0,0,0,8.25-8c16.5-17.57,96.69-95.2,158.63-15.89q2.31,3,4.85,5.72c9.55,10.4,44.31,53.93,38.52,130.87a138.41,138.41,0,0,1-8.74,38.59c-13.19,34.94-43.2,136.25-9.51,267.8Z"/><path class="cls-7" d="M1265.13,1080S1364,1027,1303,859c0,0-48.55-113.37-22.77-141.69,0,0,30.63-37.27,108.8,100.35,9.37,16.49,19.29,32.68,29.9,48.41,22.67,33.56,66.38,109.64,80.16,213.92Z"/><path class="cls-7" d="M1721.74,1080s-35.58-108.37,1.94-188.69a258.11,258.11,0,0,0,15.26-40.74c10.67-38.85,21.12-103.7-19.2-126a52.3,52.3,0,0,0-37.16-4.83c-20.59,4.8-60.55,18-77.16,50.11-10.32,20-28.23,35.12-50.06,40.52A93.87,93.87,0,0,1,1526,813s-39.1-2.52-20,54.9A153.12,153.12,0,0,0,1525.66,907c24.27,34.93,96.09,150.35,69.34,259Z"/></g></g></svg>